<?xml version="1.0" encoding="UTF-8"?>
<svg width="60px" height="48px" viewBox="0 0 60 48" version="1.1" xmlns="http://www.w3.org/2000/svg" xmlns:xlink="http://www.w3.org/1999/xlink">
    <title>D2689BC7-4C55-46C1-BCD0-C2D271633A37</title>
    <defs>
        <filter x="-75.8%" y="-92.7%" width="251.7%" height="289.6%" filterUnits="objectBoundingBox" id="filter-1">
            <feOffset dx="0" dy="1" in="SourceAlpha" result="shadowOffsetOuter1"></feOffset>
            <feGaussianBlur stdDeviation="15" in="shadowOffsetOuter1" result="shadowBlurOuter1"></feGaussianBlur>
            <feComposite in="shadowBlurOuter1" in2="SourceAlpha" operator="out" result="shadowBlurOuter1"></feComposite>
            <feColorMatrix values="0 0 0 0 0.639215686   0 0 0 0 1   0 0 0 0 0.0705882353  0 0 0 0.0988035402 0" type="matrix" in="shadowBlurOuter1" result="shadowMatrixOuter1"></feColorMatrix>
            <feMerge>
                <feMergeNode in="shadowMatrixOuter1"></feMergeNode>
                <feMergeNode in="SourceGraphic"></feMergeNode>
            </feMerge>
        </filter>
    </defs>
    <g id="Page-1" stroke="none" stroke-width="1" fill="none" fill-rule="evenodd">
        <g id="[W]-Landing-Page-V1" transform="translate(-1087.000000, -2979.000000)" fill="#A3FF12">
            <g id="Section-2" transform="translate(0.000000, 2254.000000)">
                <g id="Core-Features" transform="translate(362.000000, 589.000000)">
                    <g id="3" transform="translate(620.000000, 90.000000)">
                        <g id="controller" transform="translate(105.000000, 46.000000)" filter="url(#filter-1)">
                            <path d="M16.6937715,6 C12.040192,6 8.15405931,9.54774 7.73115663,14.18214 L6.03612597,32.7579 C5.58331381,37.7202 9.49017618,42 14.4731799,42 C16.5033948,42 18.3582327,41.2914 19.8208274,40.0995 C22.0278292,38.3004 25.5373484,36 30.0000712,36 C34.4624939,36 37.9721332,38.3004 40.179195,40.0995 C41.6416697,41.2914 43.4965375,42 45.5269024,42 C50.5098162,42 54.4166485,37.7202 53.9639564,32.7579 L52.2686857,14.18214 C51.845993,9.54774 47.9598603,6 43.3063408,6 L16.6937715,6 Z M16.6937715,0 C8.93782574,0 2.46090785,5.91288 1.75610005,13.63689 L0.0610693935,32.2125 C-0.712467217,40.6896 5.96124726,48 14.4731799,48 C17.93338,48 21.1167749,46.7838 23.6115917,44.7501 C25.4578498,43.2453 27.6181124,42 30.0000712,42 C32.3817299,42 34.5422925,43.2453 36.3884606,44.7501 C38.8832174,46.7838 42.0664623,48 45.5269024,48 C54.0386551,48 60.7123396,40.6896 59.9389529,32.2125 L58.2439823,13.63692 C57.5389945,5.91291 51.0621066,0 43.3063408,0 L16.6937715,0 Z" id="Shape"></path>
                            <path d="M20.999627,12 C19.3428156,12 17.9996789,13.34316 17.9996789,15 L17.9996789,18 L14.9997308,18 C13.3429195,18 11.9997827,19.3431 11.9997827,21 C11.9997827,22.6569 13.3429195,24 14.9997308,24 L17.9996789,24 L17.9996789,27 C17.9996789,28.6569 19.3428156,30 20.999627,30 C22.6564383,30 23.999575,28.6569 23.999575,27 L23.999575,24 L26.9995231,24 C28.6563944,24 29.9994712,22.6569 29.9994712,21 C29.9994712,19.3431 28.6563944,18 26.9995231,18 L23.999575,18 L23.999575,15 C23.999575,13.34316 22.6564383,12 20.999627,12 Z" id="Path" fill-rule="nonzero"></path>
                            <path d="M41.9992635,27 C41.9992635,28.6569 40.6561867,30 38.9993154,30 C37.3424441,30 35.9993673,28.6569 35.9993673,27 C35.9993673,25.3431 37.3424441,24 38.9993154,24 C40.6561867,24 41.9992635,25.3431 41.9992635,27 Z" id="Path" fill-rule="nonzero"></path>
                            <path d="M44.9992115,18 C46.6560829,18 47.9991596,16.65684 47.9991596,15 C47.9991596,13.34316 46.6560829,12 44.9992115,12 C43.3423402,12 41.9992635,13.34316 41.9992635,15 C41.9992635,16.65684 43.3423402,18 44.9992115,18 Z" id="Path" fill-rule="nonzero"></path>
                        </g>
                    </g>
                </g>
            </g>
        </g>
    </g>
</svg>