<svg width="252" height="30" viewBox="0 0 252 30" xmlns="http://www.w3.org/2000/svg" xmlns:xlink="http://www.w3.org/1999/xlink">
    <defs>
        <path id="o2tj2mwtla" d="M0 0h22.36v14.757H0z"/>
        <path id="jembaj6xsc" d="M0 0h35.033v27.651H0z"/>
        <path id="8o04r8phxe" d="M0 0h35.033v27.651H0z"/>
    </defs>
    <g fill="none" fill-rule="evenodd">
        <path fill="#DBDBDB" d="m63.007 13.473-2.379 8.906h-4.1L60.475 7.62h4.1l-1.507 5.637h9.74l1.507-5.637h4.1L74.468 22.38h-4.1l1.506-5.637h-8.652zM83.449 15.635l-5.013-8.014h5.239l2.778 4.448 5.156-4.448h5.24l-9.3 8.014-1.804 6.744h-4.1zM99.052 14.795h8.97c.199 0 .397-.079.595-.236.199-.157.328-.351.39-.584l.554-2.05a.943.943 0 0 0 .03-.225.59.59 0 0 0-.113-.359.556.556 0 0 0-.471-.235h-8.97l-.985 3.689zm-.061.215-1.969 7.368h-4.1l3.947-14.757h15.121c.793 0 1.39.27 1.794.81.26.362.39.769.39 1.22a2.9 2.9 0 0 1-.103.737l-1.374 5.124c-.204.759-.65 1.41-1.337 1.952-.687.544-1.427.815-2.22.815h-9.934l-.215-3.269zM118.685 13.258h10.19l.226 3.484h-10.263l-.215-3.27-1.23 4.602a.93.93 0 0 0-.03.226c0 .137.037.256.112.358a.556.556 0 0 0 .472.236h12.045l-.932 3.484h-14.097c-.793 0-1.387-.273-1.784-.82a1.963 1.963 0 0 1-.4-1.209c0-.232.035-.478.103-.738l2.47-9.223c.206-.758.652-1.409 1.339-1.952.687-.543 1.426-.815 2.22-.815h14.096l-.933 3.485h-12.046c-.199 0-.397.078-.595.235a1.086 1.086 0 0 0-.39.585l-.358 1.332zM136.4 14.795h8.97c.198 0 .397-.079.595-.236.198-.157.328-.351.39-.584l.553-2.05a.941.941 0 0 0 .03-.225.591.591 0 0 0-.112-.359.556.556 0 0 0-.471-.235h-8.97l-.985 3.689zm-.062.215-1.968 7.368h-4.1l3.946-14.757h15.122c.793 0 1.39.27 1.794.81.26.362.39.769.39 1.22a2.9 2.9 0 0 1-.103.737l-1.097 4.1c-.164.614-.725 1.298-1.681 2.05.423.58.635 1.12.635 1.618 0 .144-.017.287-.051.43l-1.015 3.792h-4.1l.87-3.279c.022-.082.031-.16.031-.236a.557.557 0 0 0-.574-.584h-7.883l-.216-3.269zM155.017 18.074a.93.93 0 0 0-.03.226c0 .137.037.256.112.358a.555.555 0 0 0 .472.236h12.046l-.195.718c-.205.758-.651 1.409-1.338 1.952-.687.543-1.426.815-2.22.815h-11.276c-.793 0-1.388-.274-1.784-.82a1.963 1.963 0 0 1-.4-1.21c0-.232.034-.478.102-.737l2.471-9.224c.205-.758.651-1.409 1.338-1.952.687-.543 1.427-.815 2.22-.815h11.277c.793 0 1.39.27 1.794.81.26.362.39.768.39 1.22 0 .232-.035.478-.103.737l-.195.718h-12.046c-.198 0-.396.078-.595.236a1.085 1.085 0 0 0-.39.584l-1.65 6.148zM174.158 13.473l-2.379 8.906h-4.1l3.946-14.758h4.101l-1.507 5.637h9.74l1.506-5.637h4.101l-3.947 14.758h-4.1l1.506-5.637h-8.652zM194.651 16.845h4.88l-1.128-4.878-3.752 4.878zm-.174.235-4.07 5.299h-4.655L197.081 7.62h3.762c.8 0 1.288.38 1.466 1.138l3.168 13.62h-4.654l-.482-2.05h-5.66l-.204-3.249zM209.557 7.621h4.1l-3.946 14.758h-4.1zM218.446 7.621c1.449 0 2.57.54 3.362 1.62l5.167 7.706 2.492-9.326h4.1L229.62 22.38h-2.82c-1.448 0-2.569-.54-3.362-1.62l-5.033-8.188-2.625 9.808h-4.1l3.947-14.758h2.819z"/>
        <g transform="translate(229.64 7.621)">
            <mask id="mx0gdc3i0b" fill="#fff">
                <use xlink:href="#o2tj2mwtla"/>
            </mask>
            <path fill="#DBDBDB" mask="url(#mx0gdc3i0b)" d="M8.56 7.378 3.947 0h5.239l2.778 4.447L17.121 0h5.238l-8.55 7.378 4.603 7.38h-5.238l-2.779-4.449-5.156 4.448H0z"/>
        </g>
        <g>
            <mask id="r8ukx2wapd" fill="#fff">
                <use xlink:href="#jembaj6xsc"/>
            </mask>
            <path d="M35.033 0 31.497 6.12l-3.396 5.878h-8.21l3.464-6h-7.387c-.51 0-.981.273-1.236.714L8.17 18.069a.911.911 0 0 0 .144 1.1l2.109 2.108-3.681 6.374-5.491-5.488a4.27 4.27 0 0 1-.68-5.157L8.885 2.614A5.232 5.232 0 0 1 13.415 0h21.618z" fill="#A3FF12" mask="url(#r8ukx2wapd)"/>
        </g>
        <g transform="translate(9.49 2.349)">
            <mask id="vde43ayp6f" fill="#fff">
                <use xlink:href="#8o04r8phxe"/>
            </mask>
            <path d="m34.461 10.645-8.312 14.392a5.232 5.232 0 0 1-4.53 2.614H0l6.932-11.999h8.211l-3.465 6h7.387c.51 0 .982-.272 1.237-.714l6.561-11.356a.91.91 0 0 0-.145-1.1l-2.111-2.11L28.291 0l5.49 5.489a4.27 4.27 0 0 1 .68 5.156" fill="#A3FF12" mask="url(#vde43ayp6f)"/>
        </g>
    </g>
</svg>
