<?xml version="1.0" encoding="UTF-8"?>
<svg width="25px" height="20px" viewBox="0 0 25 20" version="1.1" xmlns="http://www.w3.org/2000/svg" xmlns:xlink="http://www.w3.org/1999/xlink">
    <title>4341A825-6D1B-4D74-8213-8E93EF67A15B</title>
    <g id="Page-1" stroke="none" stroke-width="1" fill="none" fill-rule="evenodd">
        <g id="[W]-Landing-Page-V1" transform="translate(-691.000000, -632.000000)" fill="#A3FF12">
            <g id="Section-0" transform="translate(0.000000, 279.000000)">
                <g id="Text-+-Button-+-Social" transform="translate(360.000000, 0.000000)">
                    <g id="Group-2" transform="translate(0.000000, 270.000000)">
                        <g id="Socials" transform="translate(0.000000, 80.000000)">
                            <g id="iconmonstr-medium-1" transform="translate(331.000000, 3.000000)">
                                <path d="M2.96458333,4.08019734 C2.99583333,3.77053482 2.878125,3.46507112 2.64895833,3.25722983 L0.315625,0.423030494 L0.315625,0 L7.56354167,0 L13.165625,12.3812523 L18.090625,0 L25,0 L25,0.423030494 L23.0041667,2.35133575 C22.8322917,2.48359838 22.746875,2.700887 22.7822917,2.91607621 L22.7822917,17.0849735 C22.746875,17.299113 22.8322917,17.5164016 23.0041667,17.6486643 L24.953125,19.5769695 L24.953125,20 L15.1489583,20 L15.1489583,19.5769695 L17.16875,17.6014276 C17.3666667,17.4019839 17.3666667,17.3432005 17.3666667,17.0377368 L17.3666667,5.5854721 L11.753125,19.953813 L10.9947917,19.953813 L4.45833333,5.5854721 L4.45833333,15.2154516 C4.40416667,15.6195875 4.5375,16.0279221 4.81979167,16.3197397 L7.44583333,19.5297329 L7.44583333,19.953813 L0,19.953813 L0,19.5297329 L2.62604167,16.3197397 C2.90729167,16.0268724 3.03229167,15.6164384 2.96458333,15.2154516 L2.96458333,4.08019734 L2.96458333,4.08019734 Z" id="Path"></path>
                            </g>
                        </g>
                    </g>
                </g>
            </g>
        </g>
    </g>
</svg>