<?xml version="1.0" encoding="UTF-8"?>
<svg width="24px" height="20px" viewBox="0 0 24 20" version="1.1" xmlns="http://www.w3.org/2000/svg" xmlns:xlink="http://www.w3.org/1999/xlink">
    <title>1A5D6B19-8A46-4ADC-8820-FDF2166FE738</title>
    <g id="Page-1" stroke="none" stroke-width="1" fill="none" fill-rule="evenodd">
        <g id="[W]-Landing-Page-V1" transform="translate(-746.000000, -632.000000)" fill="#A3FF12" fill-rule="nonzero">
            <g id="Section-0" transform="translate(0.000000, 279.000000)">
                <g id="Text-+-Button-+-Social" transform="translate(360.000000, 0.000000)">
                    <g id="Group-2" transform="translate(0.000000, 270.000000)">
                        <g id="Socials" transform="translate(0.000000, 80.000000)">
                            <path d="M401.6348,16.2323059 C400.7204,16.2323059 399.9536,15.4961176 399.9536,14.5881176 C399.9536,13.6789176 400.7204,12.9188588 401.6348,12.9188588 C402.548,12.9188588 403.2884,13.6789176 403.2884,14.5881176 C403.2884,15.4961176 402.5492,16.2323059 401.6348,16.2323059 M401.8676,19.2701294 C401.06,20.0719529 399.794,20.4621176 397.9988,20.4621176 C396.2024,20.4621176 394.9376,20.0719529 394.1312,19.2701294 C393.956,19.0959294 393.956,18.8143412 394.1312,18.6389412 C394.3052,18.4647412 394.5896,18.4647412 394.7648,18.6389412 C395.3948,19.2653647 396.452,19.5708118 397.9988,19.5708118 C399.5444,19.5708118 400.6028,19.2653647 401.234,18.6389412 C401.408,18.4647412 401.6924,18.4647412 401.8676,18.6389412 C402.0428,18.8143412 402.0428,19.0959294 401.8676,19.2701294 M392.7104,14.5881176 C392.7104,13.6801059 393.476,12.9188588 394.3892,12.9188588 C395.3024,12.9188588 396.0428,13.6801059 396.0428,14.5881176 C396.0428,15.4961176 395.3024,16.2323059 394.3892,16.2323059 C393.476,16.2323059 392.7104,15.4961176 392.7104,14.5881176 M410,12.7804588 C410,11.2901765 408.7808,10.0779176 407.282,10.0779176 C406.5908,10.0779176 405.9392,10.3344471 405.44,10.7938235 C403.646,9.63285882 401.2436,8.88235294 398.5832,8.77974118 L400.0508,4.32561176 L403.9052,5.22765882 C403.9064,6.45424706 404.9096,7.45054118 406.1432,7.45054118 C407.3768,7.45054118 408.3812,6.45185882 408.3812,5.22527059 C408.3812,3.99868235 407.3768,3 406.1432,3 C405.2192,3 404.426,3.55841176 404.084,4.35425882 C403.2536,4.15976471 400.2848,3.46414118 399.4544,3.26965882 L397.6424,8.7702 C394.8812,8.82150588 392.3792,9.56842353 390.518,10.7568353 C390.0248,10.3213176 389.3864,10.0779176 388.7168,10.0779176 C387.2192,10.0779176 386,11.2901765 386,12.7804588 C386,13.7266471 386.4968,14.5940824 387.2912,15.0808941 C386.5676,19.3309882 391.604,23 397.9496,23 C404.2688,23 409.2884,19.3632 408.6188,15.1345882 C409.4684,14.6608941 410,13.7731765 410,12.7804588" id="reddit-[#143]"></path>
                        </g>
                    </g>
                </g>
            </g>
        </g>
    </g>
</svg>