<svg width="25" height="20" viewBox="0 0 25 20" xmlns="http://www.w3.org/2000/svg">
    <path d="M7.862 20c9.434 0 14.594-7.695 14.594-14.368 0-.22 0-.437-.015-.654A10.33 10.33 0 0 0 25 2.364c-.935.409-1.929.677-2.945.795A5.088 5.088 0 0 0 24.31.366a10.379 10.379 0 0 1-3.258 1.226c-1.942-2.034-5.19-2.132-7.257-.22a5.007 5.007 0 0 0-1.484 4.826C8.188 5.994 4.345 4.076 1.74.922.379 3.23 1.075 6.181 3.329 7.662A5.152 5.152 0 0 1 1 7.032v.063c.001 2.404 1.723 4.474 4.115 4.95a5.18 5.18 0 0 1-2.315.086c.671 2.058 2.598 3.467 4.791 3.507A10.394 10.394 0 0 1 0 17.732a14.692 14.692 0 0 0 7.862 2.264" fill="#A3FF12" fill-rule="nonzero"/>
</svg>
