<?xml version="1.0" encoding="UTF-8"?>
<svg width="30px" height="21px" viewBox="0 0 30 21" version="1.1" xmlns="http://www.w3.org/2000/svg" xmlns:xlink="http://www.w3.org/1999/xlink">
    <title>B2B692CE-086A-4A5B-8C1B-2F224695C699</title>
    <g id="Page-1" stroke="none" stroke-width="1" fill="none" fill-rule="evenodd">
        <g id="[W]-Landing-Page-V1" transform="translate(-576.000000, -631.000000)" fill-rule="nonzero">
            <g id="Section-0" transform="translate(0.000000, 279.000000)">
                <g id="Text-+-Button-+-Social" transform="translate(360.000000, 0.000000)">
                    <g id="Group-2" transform="translate(0.000000, 270.000000)">
                        <g id="Socials" transform="translate(0.000000, 80.000000)">
                            <g id="YouTube_full-color_icon_(2017)" transform="translate(216.000000, 2.000000)">
                                <path d="M29.3343117,3.28381541 C28.984829,1.98940069 27.976706,0.975795102 26.6843884,0.629592057 C24.9484966,-0.0416571818 8.13492513,-0.370550075 3.25753003,0.648825559 C1.96521236,0.998875305 0.953248887,2.00863419 0.607606715,3.30304891 C-0.175848875,6.74584586 -0.235376138,14.1892113 0.626809057,17.7089423 C0.976291698,19.003357 1.9844147,20.0169626 3.27673238,20.3631657 C6.71395175,21.155586 23.0551456,21.2671403 26.7035907,20.3631657 C27.9959084,20.0131159 29.0078719,19.003357 29.353514,17.7089423 C30.1888159,13.9584093 30.2483432,6.97664789 29.3343117,3.28381541 Z" id="Path" fill="#A3FF12"></path>
                                <polygon id="Path" fill="#0F1010" points="19.9251637 10.4963789 12.0906078 5.99573926 12.0906078 14.9970184"></polygon>
                            </g>
                        </g>
                    </g>
                </g>
            </g>
        </g>
    </g>
</svg>